<?xml version="1.0" encoding="UTF-8"?>
<svg version="1.1" xmlns="http://www.w3.org/2000/svg" width="50" height="50">
<path d="M0 0 C6.60371256 2.2859005 11.06092469 6.64697844 15.25 12.125 C15.91 12.125 16.57 12.125 17.25 12.125 C18.360682 10.91760954 19.41465549 9.65765169 20.4375 8.375 C23.78561374 4.46423644 26.48346092 2.11827998 31.25 0.125 C34.5625 0.1875 34.5625 0.1875 37.25 1.125 C39.7090567 4.81358506 39.58184578 7.66982186 39.5625 11.9375 C39.57861328 12.63681641 39.59472656 13.33613281 39.61132812 14.05664062 C39.61577759 18.81311385 38.85843675 22.13598548 36.25 26.125 C35.26 26.455 34.27 26.785 33.25 27.125 C33.25 27.785 33.25 28.445 33.25 29.125 C33.91 29.125 34.57 29.125 35.25 29.125 C36.72896861 32.08293723 36.6855582 33.82720224 36.25 37.125 C33.81324001 41.31100555 31.0713101 43.71434495 26.75 45.875 C23.02387847 46.14115154 22.56173673 46.04851422 19.8125 43.875 C17.25 41.125 17.25 41.125 17.25 39.125 C16.59 39.125 15.93 39.125 15.25 39.125 C15.0025 39.723125 14.755 40.32125 14.5 40.9375 C12.98384379 43.59077338 12.01512942 44.77980191 9.25 46.125 C4.63720445 45.61246716 1.93148556 44.19306974 -1.1875 40.875 C-3.24853601 38.24937167 -3.73576867 37.23275152 -4.1875 33.8125 C-3.75 31.125 -3.75 31.125 -2.75 29.125 C-2.09 29.125 -1.43 29.125 -0.75 29.125 C-0.75 28.465 -0.75 27.805 -0.75 27.125 C-1.36875 26.898125 -1.9875 26.67125 -2.625 26.4375 C-5.49714896 24.66352564 -5.76749597 23.34830268 -6.75 20.125 C-6.98897677 17.38788234 -7.11998807 14.79650535 -7.125 12.0625 C-7.16173828 11.00192383 -7.16173828 11.00192383 -7.19921875 9.91992188 C-7.21896125 6.41562757 -7.01483031 4.48090065 -4.8984375 1.63671875 C-2.75 0.125 -2.75 0.125 0 0 Z M-1.75 5.125 C-1.8309313 7.72978883 -1.89045434 10.33206653 -1.9375 12.9375 C-1.96263672 13.67548828 -1.98777344 14.41347656 -2.01367188 15.17382812 C-2.09592693 19.35602645 -2.09592693 19.35602645 -0.5 23.125 C1.65063722 24.35393556 2.97536054 24.43358883 5.4375 24.3125 C6.695625 24.250625 7.95375 24.18875 9.25 24.125 C8.88594751 26.82938996 8.56857318 27.86906383 6.40234375 29.609375 C5.30599609 30.23585938 5.30599609 30.23585938 4.1875 30.875 C3.45402344 31.30296875 2.72054688 31.7309375 1.96484375 32.171875 C1.39894531 32.48640625 0.83304688 32.8009375 0.25 33.125 C2.68573873 37.60159284 2.68573873 37.60159284 6.25 41.125 C8.25113033 41.07520177 8.25113033 41.07520177 10.25 40.125 C11.81473341 38.05797415 11.81473341 38.05797415 13 35.5625 C13.64195313 34.32306641 13.64195313 34.32306641 14.296875 33.05859375 C14.61140625 32.42050781 14.9259375 31.78242187 15.25 31.125 C15.91 31.125 16.57 31.125 17.25 31.125 C18.7578125 33.3125 18.7578125 33.3125 20.375 36.125 C20.91382812 37.053125 21.45265625 37.98125 22.0078125 38.9375 C22.41773437 39.659375 22.82765625 40.38125 23.25 41.125 C26.56697361 40.56508352 27.96174669 39.72355293 30 37.0625 C31.11375 35.6084375 31.11375 35.6084375 32.25 34.125 C30.10233207 31.81824556 28.25604076 30.12843225 25.5 28.5625 C24.7575 28.088125 24.015 27.61375 23.25 27.125 C23.25 26.135 23.25 25.145 23.25 24.125 C25.23567708 24.22265625 27.22135417 24.3203125 29.20703125 24.41796875 C31.28386912 24.24797557 31.28386912 24.24797557 33 23.125 C34.99250219 19.93699649 34.56123006 16.57008765 34.4375 12.9375 C34.42396484 12.18791016 34.41042969 11.43832031 34.39648438 10.66601562 C34.36118539 8.81870233 34.30737917 6.97175934 34.25 5.125 C27.28841539 6.33922987 24.4215257 9.70758317 20.4375 15.375 C19.36772697 16.95342844 18.30279107 18.53519446 17.25 20.125 C13.63633823 18.92044608 13.37830114 18.06178058 11.5 14.875 C8.59732734 10.33640709 5.89527369 7.84204688 1.25 5.125 C0.26 5.125 -0.73 5.125 -1.75 5.125 Z " fill="#000000" transform="translate(7.75,0.875)"/>
</svg>
