<svg version="1.1" id="Layer_1" xmlns="http://www.w3.org/2000/svg" xmlns:xlink="http://www.w3.org/1999/xlink" x="0px" y="0px"
	 width="100%" viewBox="0 0 496 496" enable-background="new 0 0 496 496" xml:space="preserve">
<path fill="#000000" opacity="1.000000" stroke="none" 
	d="
M242.736404,230.251755 
	C240.667908,226.074173 239.232147,221.973099 236.485657,218.654175 
	C227.882492,221.857834 226.590851,224.117844 228.730728,232.262192 
	C229.254654,234.256271 229.245575,236.301727 227.114609,236.794998 
	C224.749741,237.342422 224.865448,234.995636 224.569565,233.421707 
	C224.145081,231.163544 224.197678,228.357681 220.979584,228.330399 
	C217.918900,228.304428 218.227631,231.254898 217.646530,233.145142 
	C216.959900,235.378616 216.494446,237.632370 214.332748,239.364761 
	C211.117813,235.129776 211.008087,229.306808 206.785522,225.011856 
	C201.667542,230.321274 198.802887,236.863525 194.131622,242.261383 
	C192.840149,234.852417 199.785736,230.558334 201.212631,224.031677 
	C198.673309,222.269501 195.196945,223.501907 192.888535,221.412598 
	C194.174500,216.667847 202.425873,210.057220 206.838394,210.227982 
	C208.065414,213.993500 202.791275,214.421265 203.008881,217.705887 
	C205.049622,219.891739 205.999634,216.606583 207.999985,216.729660 
	C211.456314,219.128387 210.013351,224.522095 213.739471,227.312668 
	C216.669800,225.474579 216.725922,222.049561 217.837601,219.313034 
	C219.892288,214.255173 221.296921,213.406860 225.702255,216.714462 
	C227.988510,218.431061 229.171204,217.612457 230.891983,216.580002 
	C235.869949,213.593277 237.644638,213.996613 241.012360,218.895798 
	C242.596481,221.200302 243.536148,223.944580 245.770203,226.001083 
	C250.224884,224.214523 248.222397,218.313263 252.273712,215.836014 
	C254.265549,219.951996 252.409851,223.598785 251.574600,227.022797 
	C250.003922,233.461639 247.269836,239.585266 245.938110,246.130524 
	C245.677170,247.412949 245.257111,249.531036 243.157654,248.817200 
	C241.155212,248.136353 242.103470,246.381363 242.447525,244.974777 
	C243.611359,240.216522 246.146027,235.498413 242.736404,230.251755 
z"/>
<path fill="#000000" opacity="1.000000" stroke="none" 
	d="
M317.458435,237.610901 
	C316.702362,235.784653 316.460114,234.083511 315.130524,232.919647 
	C310.783936,237.704224 310.467499,237.667923 307.524048,231.285980 
	C304.731567,237.187134 300.094727,239.574860 294.296997,240.057892 
	C292.765686,236.998871 295.506409,236.051636 296.745850,234.628204 
	C300.665222,230.127090 300.486145,226.184448 295.988434,222.306824 
	C294.607330,221.116150 293.185089,219.898773 292.108856,218.450516 
	C291.105225,217.099976 291.118042,215.311447 293.091034,214.879105 
	C295.836060,214.277573 297.765015,212.553116 299.446777,210.610672 
	C307.108826,217.196030 307.373657,217.148270 310.471924,209.023041 
	C311.710876,208.976624 312.373596,209.797607 312.488983,210.809143 
	C312.842529,213.909210 313.688812,216.155533 317.060547,217.652206 
	C319.835632,218.884064 319.371216,222.712585 319.499573,225.380753 
	C319.686798,229.272659 320.411743,232.924255 321.777374,236.516251 
	C322.368988,238.072220 323.257324,240.000336 321.204254,240.879089 
	C318.722626,241.941269 318.227509,239.654678 317.458435,237.610901 
z"/>
<path fill="#000000" opacity="1.000000" stroke="none" 
	d="
M266.441528,233.963043 
	C262.508392,233.457062 259.196716,234.945496 255.733322,235.228638 
	C254.560303,235.324539 253.313019,235.457489 252.545151,234.332245 
	C251.742996,233.156754 252.382645,232.175842 253.144058,231.190140 
	C257.103973,226.063873 263.426453,223.433640 266.974945,217.674652 
	C267.977417,216.047699 271.516022,217.260712 271.772980,220.271454 
	C271.910736,221.885880 272.113037,223.153519 273.475739,224.351059 
	C275.258301,223.593063 276.632507,222.445312 276.779663,220.481323 
	C277.046600,216.918579 277.927612,216.153671 282.195221,216.052322 
	C287.738037,215.920670 287.897400,218.400177 288.201141,222.069214 
	C288.560669,226.412598 289.577484,230.593628 291.323608,234.584152 
	C291.977356,236.078247 292.438263,237.693787 290.619019,238.419250 
	C288.711517,239.179871 288.016235,237.426712 287.518860,236.031708 
	C286.850281,234.156479 286.461578,232.182266 285.810638,230.299667 
	C285.199097,228.530945 285.220764,226.174423 282.500427,226.008057 
	C280.815063,227.023895 281.069275,228.707520 281.282074,230.075623 
	C281.953033,234.388824 280.807220,236.911789 276.008362,237.675873 
	C273.922729,238.007965 272.432800,238.338028 271.390228,236.382919 
	C270.368439,234.466797 268.745575,234.013824 266.441528,233.963043 
z"/>
</svg>