<svg version="1.1" id="Layer_1" xmlns="http://www.w3.org/2000/svg" xmlns:xlink="http://www.w3.org/1999/xlink" x="0px" y="0px"
	 width="100%" viewBox="175 210 165 55" enable-background="new 175 210 165 55" xml:space="preserve">
<path fill="#000000" opacity="1.000000" stroke="none" 
	d="
M334.028564,236.959198 
	C335.018707,240.558777 335.897003,243.752182 336.764496,246.948532 
	C337.166199,248.428513 336.872742,249.683090 335.236877,250.063690 
	C333.590332,250.446732 332.926941,249.315323 332.406342,247.944077 
	C331.260651,244.926346 331.351624,241.375534 328.910767,239.040131 
	C327.403137,238.974350 326.839294,239.770004 326.496887,240.754608 
	C325.987579,242.219086 325.407959,243.771164 323.579346,243.660080 
	C321.512054,243.534515 321.770020,241.676987 321.507324,240.247940 
	C321.261414,238.910370 320.846558,237.307907 319.166046,237.601273 
	C316.990997,237.980988 315.106262,239.191544 314.485596,241.537704 
	C314.034058,243.244522 314.754333,245.207977 313.218323,247.090912 
	C310.160645,245.674347 307.538879,246.445877 305.331818,249.082428 
	C304.591522,249.966766 303.262695,250.455063 302.223694,249.428345 
	C301.028412,248.247147 301.538513,246.988495 302.548798,245.921280 
	C303.575958,244.836227 304.695618,243.837646 305.706238,242.738220 
	C311.174805,236.788925 310.723053,231.380280 304.379211,226.429703 
	C303.593872,225.816864 302.792053,225.212631 302.081879,224.518463 
	C300.557526,223.028427 298.466064,221.577362 299.240784,219.143631 
	C299.962067,216.877869 302.392914,217.432968 304.025543,217.631424 
	C307.790222,218.089050 306.396637,213.534882 309.662598,212.767288 
	C311.850342,215.505859 311.838501,221.223343 317.843964,220.470520 
	C324.970795,219.577148 319.269714,212.820587 323.072052,210.246765 
	C325.517548,211.479492 325.165222,213.921631 325.417480,216.117004 
	C325.685791,218.452484 325.758026,220.903000 329.262665,220.660492 
	C331.647522,220.495468 332.213470,222.173859 332.417542,224.235886 
	C332.824799,228.351013 333.404053,232.449112 334.028564,236.959198 
z"/>
<path fill="#000000" opacity="1.000000" stroke="none" 
	d="
M281.158020,228.096893 
	C281.315094,226.685684 281.416321,225.692978 281.557251,224.705933 
	C281.803864,222.978409 281.196716,220.763336 283.504700,220.048309 
	C285.685303,219.372742 285.748566,222.022003 286.849945,222.900269 
	C292.203949,219.187424 293.461304,219.777084 294.265869,226.062469 
	C295.024170,231.986359 296.221588,237.792130 298.656860,243.297775 
	C299.396881,244.970871 300.189972,247.095520 297.769196,247.905289 
	C295.678558,248.604645 294.912750,246.550339 294.439911,245.007416 
	C292.799133,239.653381 292.354950,233.949585 289.849396,228.701736 
	C286.360443,230.606339 286.320892,233.464371 286.486145,236.802765 
	C286.633240,239.774811 287.181030,243.156082 284.395966,245.642395 
	C281.547272,244.493225 282.129639,241.866180 281.670715,239.577362 
	C279.034729,239.668610 278.611969,240.812653 279.701050,243.016907 
	C280.501251,244.636536 280.704803,246.385681 278.603088,247.161392 
	C276.475983,247.946472 275.445923,246.353394 275.022400,244.698578 
	C273.897003,240.301514 270.816467,240.176880 267.264587,240.836823 
	C263.680664,241.502716 260.095642,242.162781 256.512024,242.830215 
	C254.603409,243.185699 252.341827,244.254898 251.160172,241.954971 
	C249.993103,239.683456 252.092209,238.281693 253.508102,236.989380 
	C257.188263,233.630371 260.989929,230.404602 264.735931,227.117477 
	C265.603546,226.356155 267.022980,225.675537 267.200867,224.764877 
	C268.396149,218.646042 271.789246,221.531891 275.265076,222.571579 
	C273.358368,227.004196 273.670380,231.466690 277.831512,233.326828 
	C280.592957,234.561249 280.841095,230.785568 281.158020,228.096893 
M264.453644,233.425568 
	C263.929962,234.137756 262.732727,234.585907 263.658997,236.073334 
	C266.363373,235.825226 268.809479,235.201050 269.920654,232.100357 
	C267.656891,230.504501 266.380188,232.172867 264.453644,233.425568 
z"/>
<path fill="#000000" opacity="1.000000" stroke="none" 
	d="
M191.880615,211.769318 
	C193.419281,211.174011 194.610138,211.096375 195.035156,212.599274 
	C195.437027,214.020294 194.721786,215.246536 193.672729,216.131714 
	C191.443359,218.012833 188.827087,219.479980 186.907928,222.228607 
	C189.304199,223.265656 191.218689,223.367462 192.748199,221.727325 
	C196.340973,217.874695 197.396881,220.814438 198.291748,223.774384 
	C199.540848,227.906143 201.097794,231.883621 203.625229,236.818604 
	C205.549515,231.080963 207.071136,226.324020 208.760925,221.627609 
	C209.334259,220.034134 209.634445,217.334595 212.038925,218.075287 
	C214.678970,218.888535 213.598709,221.284943 212.879944,223.125992 
	C210.397446,229.484665 208.343124,235.956894 207.052292,242.679047 
	C206.651779,244.764801 205.749039,246.783508 203.526550,248.467468 
	C200.489197,242.596283 199.149872,236.031921 195.128326,230.384872 
	C191.117081,233.005447 189.550659,237.149750 187.205734,240.608414 
	C185.157135,243.630020 183.495087,246.916840 181.715317,250.116013 
	C181.003174,251.396088 180.605286,253.295990 178.600693,252.379028 
	C176.663986,251.493103 176.839249,249.656036 177.684250,248.076538 
	C179.095200,245.439148 180.692871,242.901566 182.214813,240.323654 
	C184.461594,236.517960 187.467392,233.129364 189.051056,228.246414 
	C185.727524,227.912476 182.795822,227.600693 179.860245,227.331024 
	C178.617172,227.216812 177.498093,226.831589 177.060745,225.603409 
	C176.597626,224.302887 177.453369,223.375900 178.377106,222.621201 
	C182.758987,219.041306 187.161850,215.487091 191.880615,211.769318 
z"/>
<path fill="#000000" opacity="1.000000" stroke="none" 
	d="
M251.410828,219.787796 
	C251.401443,221.594345 251.495773,223.150909 251.074326,224.552353 
	C247.867508,235.215652 244.627090,245.865631 242.155396,256.734589 
	C241.811264,258.247894 241.452942,260.511505 239.179474,259.901489 
	C236.946121,259.302246 237.852661,257.268555 238.146973,255.687363 
	C238.177078,255.525711 238.236969,255.364090 238.311768,255.217072 
	C244.155563,243.731949 238.611572,234.221466 233.102020,224.655029 
	C231.937561,222.633133 230.751114,222.063446 228.736633,223.364029 
	C220.247299,228.844864 218.384399,230.833252 221.650711,239.748917 
	C222.119370,241.028137 222.474731,242.288605 222.125305,243.635956 
	C221.819534,244.815002 221.266006,245.865448 219.889694,245.973007 
	C218.380585,246.090927 218.009842,245.009933 217.718399,243.784027 
	C216.873398,240.229782 217.543503,236.011673 213.464279,233.830231 
	C213.344940,233.766434 213.206284,233.480698 213.252563,233.402222 
	C215.706146,229.242599 215.013107,224.099976 216.673019,219.929916 
	C219.371048,220.006943 219.164398,222.293594 220.690872,222.959717 
	C223.074005,222.761032 224.731003,220.894180 226.531479,219.593597 
	C230.742035,216.552078 233.688004,218.026627 236.032837,221.777817 
	C238.367157,225.512161 240.402817,229.433212 242.769974,233.627777 
	C246.312302,230.157257 246.099503,225.945999 247.294479,222.283951 
	C247.896835,220.437973 247.772690,217.314987 251.410828,219.787796 
z"/>
</svg>
